<svg width="1080" height="472" viewBox="0 0 1080 472" fill="none" xmlns="http://www.w3.org/2000/svg">
<g clip-path="url(#clip0_47143_91800)">
<path d="M1080 0H0V472H1080V0Z" fill="#E2E4E8"/>
<path d="M881.539 454H198.462C188.266 454 180 462.266 180 472.462H900C900 462.266 891.734 454 881.539 454Z" fill="#B0B3B8"/>
<path fill-rule="evenodd" clip-rule="evenodd" d="M833.058 309.199H648.133V453.999H685.187V354.633H796.004V453.999H833.058V309.199Z" fill="#F5F5F5"/>
<path fill-rule="evenodd" clip-rule="evenodd" d="M683.031 454H796.429V358.049C796.429 354.195 793.305 351.07 789.451 351.07H690.01C686.156 351.07 683.031 354.195 683.031 358.049V454Z" fill="#B0B3B8"/>
<path fill-rule="evenodd" clip-rule="evenodd" d="M639.414 312.69H837.424V297.861H639.414V312.69Z" fill="#B0B3B8"/>
<path fill-rule="evenodd" clip-rule="evenodd" d="M265.203 454H361.155V268.259L316.498 185.335L265.203 268.259V454Z" fill="#D0D3D6"/>
<path fill-rule="evenodd" clip-rule="evenodd" d="M359.406 454H647.262V267.33H359.406V454Z" fill="#F5F5F5"/>
<path fill-rule="evenodd" clip-rule="evenodd" d="M574.113 381.6H601.783C604.741 381.6 607.139 379.256 607.139 376.366V320.539C607.139 317.649 604.741 315.306 601.783 315.306H574.113C571.156 315.306 568.758 317.649 568.758 320.539V376.366C568.758 379.256 571.156 381.6 574.113 381.6Z" fill="#B0B3B8"/>
<path fill-rule="evenodd" clip-rule="evenodd" d="M404.887 381.6H432.557C435.514 381.6 437.912 379.256 437.912 376.366V320.539C437.912 317.649 435.514 315.306 432.557 315.306H404.887C401.929 315.306 399.531 317.649 399.531 320.539V376.366C399.531 379.256 401.929 381.6 404.887 381.6Z" fill="#B0B3B8"/>
<path fill-rule="evenodd" clip-rule="evenodd" d="M361.037 267.33H673.431L608.881 161.783H304.453L361.037 267.33Z" fill="#B0B3B8"/>
<path fill-rule="evenodd" clip-rule="evenodd" d="M304.359 161.783L242.523 267.33H266.046L316.668 183.971L304.359 161.783Z" fill="#B0B3B8"/>
<path fill-rule="evenodd" clip-rule="evenodd" d="M477.172 454.001H529.509V393.832C529.509 380.332 517.793 369.389 503.341 369.389C488.888 369.389 477.172 380.332 477.172 393.832V454.001Z" fill="#B0B3B8"/>
<path fill-rule="evenodd" clip-rule="evenodd" d="M351.906 193.518H388.106V108.526H351.906V193.518Z" fill="#F5F5F5"/>
<path fill-rule="evenodd" clip-rule="evenodd" d="M351.91 109.269L338.531 99.8701V180.385L351.91 194.305V109.269Z" fill="#B0B3B8"/>
<path fill-rule="evenodd" clip-rule="evenodd" d="M383.841 108.573L373.461 98.9775H340.227L351.269 108.573H383.841Z" fill="#B0B3B8"/>
<path fill-rule="evenodd" clip-rule="evenodd" d="M350.688 113.807H388.196V103.34H350.688V113.807Z" fill="#B0B3B8"/>
<path fill-rule="evenodd" clip-rule="evenodd" d="M350.689 103.263L338.477 92V104.648L350.689 115.552V103.263Z" fill="#B0B3B8"/>
<path fill-rule="evenodd" clip-rule="evenodd" d="M388.11 103.804L376.309 92H338.531L351.085 103.804H388.11Z" fill="#B0B3B8"/>
</g>
<defs>
<clipPath id="clip0_47143_91800">
<rect width="1080" height="472" fill="white"/>
</clipPath>
</defs>
</svg>
