<svg width="176" height="94" viewBox="0 0 176 94" fill="none" xmlns="http://www.w3.org/2000/svg">
<g clip-path="url(#clip0_4050_1646)">
<path d="M55.1 94H41V0H135V94H119.374C119.318 92.1889 119.409 90.3559 119.18 88.5668C117.836 78.0075 113.496 68.9929 105.099 62.2092C95.2568 54.2631 81.8837 53.7053 71.4184 60.7522C63.701 65.9473 59.0574 73.32 56.5633 82.1403C55.4697 86.0037 54.6269 89.9267 55.1 94ZM106.371 33.5643C106.371 29.1275 105.609 26.1132 103.613 22.4629C97.5817 11.4461 83.6603 9.65067 75.1001 18.7937C67.1539 27.2913 67.8934 41.8081 76.7043 49.8137C82.9898 55.5289 93.0133 55.5289 99.3051 49.8137C104.127 45.4615 106.405 40.0127 106.371 33.5643Z" fill="#7C7C7C"/>
<path d="M55.1 94C54.6237 89.9267 55.4666 86.0037 56.5601 82.1403C59.0668 73.3231 63.6979 65.9473 71.4153 60.7522C81.8806 53.7053 95.2537 54.2631 105.095 62.2092C113.493 68.9929 117.832 78.0075 119.177 88.5668C119.405 90.3559 119.315 92.1889 119.371 94H55.1Z" fill="white"/>
<path d="M106.371 33.5643C106.405 40.0127 104.127 45.4709 99.3176 49.82C93.0133 55.5258 83.0023 55.5258 76.72 49.82C67.9216 41.8175 67.1696 27.3007 75.1157 18.8C83.6635 9.65693 97.5849 11.4523 103.629 22.4691C105.609 26.1132 106.355 29.14 106.371 33.5643Z" fill="white"/>
</g>
<defs>
<clipPath id="clip0_4050_1646">
<rect x="41" width="94" height="94" rx="47" fill="white"/>
</clipPath>
</defs>
</svg>
